<?xml version="1.0" encoding="utf-8"?><svg xmlns="http://www.w3.org/2000/svg" xmlns:xlink="http://www.w3.org/1999/xlink"><symbol viewBox="0 0 2032 360.368" id="icon-bg"><path fill-rule="evenodd" clip-rule="evenodd" d="M2032 360.368V0L1016 173 0 0v360.368z"/></symbol><symbol viewBox="0 0 186.861 110.966" id="icon-stars1"><circle cx="70.704" cy="105.783" r="5.182"/><circle cx="5.183" cy="78.269" r="5.183"/><circle cx="121.8" cy="63.519" r="2.848"/><circle cx="48.859" cy="49.678" r="2.848"/><circle cx="33.16" cy="17.826" r="2.848"/><circle cx="87.597" cy="7.948" r="2.848"/><path stroke="#fff" stroke-width=".75" stroke-miterlimit="10" d="M5.183 78.269l65.521 27.513 51.097-42.263zM33.16 17.825L5.183 78.269l65.521 27.513L88.01 7.825zm15.699 31.852l72.942 13.842"/><circle cx="181.678" cy="93.211" r="5.182"/><circle cx="136.611" cy="5.184" r="5.183"/><circle cx="176.274" cy="27.121" r="2.848"/><circle cx="123.17" cy="79.005" r="2.848"/><circle cx="88.066" cy="73.644" r="2.848"/><circle cx="111.13" cy="23.354" r="2.848"/><path stroke="#fff" stroke-width=".75" stroke-miterlimit="10" d="M123.17 79.005l58.508 14.205-5.404-66.09zm-35.105-5.361l48.546-68.461 45.067 88.027-70.413-70.265zm35.104 5.36l53.105-51.884"/></symbol></svg>